<svg xmlns="http://www.w3.org/2000/svg">
    <symbol id="icon-microphone" viewBox="0 0 24 24">
        <path d="M12 2c0.553 0 1.051 0.223 1.414 0.586s0.586 0.861 0.586 1.414v8c0 0.553-0.223 1.051-0.586 1.414s-0.861 0.586-1.414 0.586-1.051-0.223-1.414-0.586-0.586-0.861-0.586-1.414v-8c0-0.553 0.223-1.051 0.586-1.414s0.861-0.586 1.414-0.586zM12 0c-1.104 0-2.106 0.449-2.828 1.172s-1.172 1.724-1.172 2.828v8c0 1.104 0.449 2.106 1.172 2.828s1.724 1.172 2.828 1.172 2.106-0.449 2.828-1.172 1.172-1.724 1.172-2.828v-8c0-1.104-0.449-2.106-1.172-2.828s-1.724-1.172-2.828-1.172zM8 24h8c0.552 0 1-0.448 1-1s-0.448-1-1-1h-3v-2.062c1.809-0.226 3.432-1.056 4.657-2.281 1.446-1.447 2.343-3.448 2.343-5.657v-2c0-0.552-0.448-1-1-1s-1 0.448-1 1v2c0 1.657-0.67 3.156-1.757 4.243s-2.586 1.757-4.243 1.757-3.156-0.67-4.243-1.757-1.757-2.586-1.757-4.243v-2c0-0.552-0.448-1-1-1s-1 0.448-1 1v2c0 2.209 0.897 4.21 2.343 5.657 1.225 1.225 2.847 2.055 4.657 2.281v2.062h-3c-0.552 0-1 0.448-1 1s0.448 1 1 1z"></path>
    </symbol>
    <symbol id="icon-microphone-off" viewBox="0 0 24 24">
        <path d="M12.516 13.93c-0.164 0.044-0.336 0.067-0.514 0.067-0.555-0.001-1.053-0.223-1.415-0.585-0.363-0.362-0.587-0.86-0.587-1.412v-0.586zM16 9.34v-5.34c0.001-1.103-0.447-2.105-1.169-2.829s-1.723-1.173-2.827-1.174c-1.014-0.001-1.943 0.377-2.649 1.002-0.636 0.563-1.092 1.327-1.274 2.197-0.113 0.541 0.234 1.070 0.775 1.183s1.070-0.234 1.183-0.775c0.092-0.44 0.322-0.825 0.641-1.108 0.35-0.31 0.806-0.497 1.308-0.499 0.571 0.003 1.066 0.226 1.427 0.587 0.363 0.364 0.586 0.862 0.585 1.416v5.34c0 0.552 0.448 1 1 1s1-0.448 1-1zM18 10v2c0 0.376-0.035 0.74-0.093 1.045-0.102 0.543 0.255 1.066 0.798 1.168s1.066-0.255 1.168-0.798c0.082-0.434 0.127-0.922 0.127-1.415v-2c0-0.552-0.448-1-1-1s-1 0.448-1 1zM8 24h8c0.552 0 1-0.448 1-1s-0.448-1-1-1h-3v-2.024c1.446-0.189 2.791-0.732 3.934-1.627l5.359 5.359c0.391 0.391 1.024 0.391 1.414 0s0.391-1.024 0-1.414l-5.838-5.838c-0.045-0.079-0.101-0.153-0.169-0.219-0.063-0.062-0.132-0.113-0.205-0.155l-15.788-15.789c-0.391-0.391-1.024-0.391-1.414 0s-0.391 1.024 0 1.414l7.707 7.707v2.586c0.001 1.105 0.451 2.106 1.174 2.828s1.725 1.17 2.829 1.169c0.739-0.001 1.433-0.202 2.027-0.553l1.477 1.477c-0.959 0.693-2.078 1.068-3.212 1.123-0.094-0.029-0.193-0.044-0.295-0.044-0.103 0-0.201 0.015-0.295 0.044-1.417-0.069-2.812-0.637-3.905-1.707-1.153-1.129-1.753-2.608-1.798-4.106-0.002-0.112-0.002-0.224-0.002-0.224v-2.007c0-0.552-0.448-1-1-1s-1 0.448-1 1v1.993c0 0.149 0.003 0.298 0.003 0.298 0.060 1.994 0.861 3.969 2.398 5.475 1.299 1.273 2.924 2.013 4.599 2.223v2.011h-3c-0.552 0-1 0.448-1 1s0.448 1 1 1z"></path>
    </symbol>
    <symbol id="icon-camera" viewBox="0 0 24 24">
        <path d="M22 8.943v6.114l-4.28-3.057zM3 4c-0.828 0-1.58 0.337-2.121 0.879s-0.879 1.293-0.879 2.121v10c0 0.828 0.337 1.58 0.879 2.121s1.293 0.879 2.121 0.879h11c0.828 0 1.58-0.337 2.121-0.879s0.879-1.293 0.879-2.121v-3.057l5.419 3.871c0.449 0.321 1.074 0.217 1.395-0.232 0.126-0.178 0.187-0.383 0.186-0.582v-10c0-0.552-0.448-1-1-1-0.218 0-0.42 0.070-0.581 0.186l-5.419 3.871v-3.057c0-0.828-0.337-1.58-0.879-2.121s-1.293-0.879-2.121-0.879zM3 6h11c0.276 0 0.525 0.111 0.707 0.293s0.293 0.431 0.293 0.707v10c0 0.276-0.111 0.525-0.293 0.707s-0.431 0.293-0.707 0.293h-11c-0.276 0-0.525-0.111-0.707-0.293s-0.293-0.431-0.293-0.707v-10c0-0.276 0.111-0.525 0.293-0.707s0.431-0.293 0.707-0.293z"></path>
    </symbol>
    <symbol id="icon-camera-off" viewBox="0 0 24 24">
        <path d="M10.66 6h3.34c0.276 0 0.525 0.111 0.707 0.293s0.293 0.431 0.293 0.707v3.34c0 0.276 0.112 0.526 0.293 0.707l1 1c0.351 0.351 0.898 0.387 1.293 0.103l4.414-3.192v8.042c0 0.552 0.448 1 1 1s1-0.448 1-1v-10c0.001-0.201-0.061-0.408-0.19-0.586-0.324-0.447-0.949-0.548-1.396-0.224l-5.309 3.841-0.105-0.105v-2.926c0-0.828-0.337-1.58-0.879-2.121s-1.293-0.879-2.121-0.879h-3.34c-0.552 0-1 0.448-1 1s0.448 1 1 1zM4.586 6l10.414 10.414v0.586c0 0.276-0.111 0.525-0.293 0.707s-0.431 0.293-0.707 0.293h-11c-0.276 0-0.525-0.111-0.707-0.293s-0.293-0.431-0.293-0.707v-10c0-0.276 0.111-0.525 0.293-0.707s0.431-0.293 0.707-0.293zM0.293 1.707l2.318 2.318c-0.673 0.087-1.277 0.398-1.732 0.854-0.542 0.541-0.879 1.293-0.879 2.121v10c0 0.828 0.337 1.58 0.879 2.121s1.293 0.879 2.121 0.879h11c0.828 0 1.58-0.337 2.121-0.879 0.269-0.269 0.488-0.59 0.64-0.946l5.532 5.532c0.391 0.391 1.024 0.391 1.414 0s0.391-1.024 0-1.414l-22-22c-0.391-0.391-1.024-0.391-1.414 0s-0.391 1.024 0 1.414z"></path>
    </symbol>
    <symbol id="icon-call" viewBox="0 0 24 24">
        <path d="M23 16.92c0.016-0.714-0.236-1.404-0.673-1.943-0.46-0.566-1.129-0.967-1.925-1.080-0.8-0.098-1.695-0.314-2.586-0.646-0.433-0.159-0.893-0.218-1.344-0.174-0.663 0.064-1.307 0.349-1.819 0.855l-0.72 0.72c-1.77-1.117-3.36-2.667-4.583-4.589l0.726-0.726c0.322-0.33 0.563-0.726 0.707-1.156 0.212-0.632 0.214-1.336-0.039-2.011-0.289-0.753-0.518-1.644-0.644-2.595-0.104-0.714-0.456-1.345-0.963-1.804-0.539-0.486-1.256-0.779-2.027-0.771h-2.996c-0.088 0-0.182 0.004-0.273 0.012-0.824 0.075-1.542 0.478-2.033 1.066s-0.758 1.367-0.683 2.199c0.3 3.076 1.365 6.243 3.216 9.102 1.502 2.413 3.648 4.623 6.298 6.306 2.568 1.697 5.684 2.862 9.086 3.231 0.092 0.009 0.191 0.013 0.288 0.013 0.828-0.003 1.578-0.343 2.118-0.887s0.873-1.297 0.87-2.121zM21 16.92v3c0.001 0.28-0.109 0.53-0.29 0.712s-0.429 0.295-0.706 0.296c-3.149-0.336-5.961-1.391-8.263-2.912-2.428-1.543-4.359-3.537-5.702-5.694-1.697-2.62-2.655-5.481-2.924-8.238-0.024-0.268 0.064-0.526 0.229-0.724s0.403-0.33 0.678-0.355l3.088-0.005c0.271-0.003 0.507 0.094 0.687 0.256 0.17 0.154 0.288 0.366 0.323 0.608 0.142 1.072 0.408 2.117 0.757 3.025 0.081 0.216 0.080 0.447 0.010 0.658-0.049 0.145-0.131 0.281-0.242 0.395l-1.262 1.261c-0.324 0.324-0.379 0.814-0.162 1.201 1.584 2.785 3.839 4.957 6.381 6.378 0.397 0.222 0.882 0.144 1.195-0.166l1.27-1.27c0.166-0.164 0.377-0.257 0.598-0.279 0.152-0.015 0.31 0.005 0.459 0.060 1.022 0.381 2.070 0.636 3.034 0.754 0.241 0.034 0.462 0.166 0.615 0.355 0.147 0.181 0.231 0.412 0.226 0.682z"></path>
    </symbol>
    <symbol id="icon-call-off" viewBox="0 0 24 24">
        <path d="M6.029 12.266c-1.682-2.593-2.64-5.44-2.914-8.185-0.024-0.266 0.064-0.523 0.229-0.721s0.403-0.33 0.678-0.355l3.088-0.005c0.271-0.003 0.507 0.094 0.687 0.256 0.17 0.154 0.288 0.366 0.323 0.608 0.142 1.072 0.408 2.117 0.757 3.025 0.081 0.216 0.080 0.447 0.010 0.658-0.049 0.145-0.131 0.281-0.242 0.395l-1.262 1.261c-0.391 0.391-0.391 1.024 0 1.414s1.024 0.391 1.414 0l1.279-1.279c0.322-0.33 0.563-0.726 0.707-1.156 0.212-0.632 0.214-1.336-0.039-2.011-0.289-0.753-0.518-1.644-0.644-2.595-0.104-0.715-0.456-1.346-0.963-1.805-0.539-0.486-1.256-0.779-2.027-0.771h-2.996c-0.088 0-0.182 0.004-0.273 0.012-0.824 0.075-1.542 0.478-2.033 1.066s-0.758 1.367-0.683 2.201c0.306 3.062 1.371 6.214 3.226 9.075 0.3 0.463 0.92 0.595 1.383 0.295s0.595-0.92 0.295-1.383zM9.285 16.13l1.421-1.421c0.929 0.828 1.918 1.531 2.899 2.075 0.397 0.221 0.88 0.142 1.193-0.167l1.27-1.27c0.166-0.164 0.377-0.257 0.598-0.279 0.152-0.015 0.31 0.005 0.459 0.060 1.022 0.381 2.070 0.636 3.034 0.754 0.24 0.034 0.458 0.164 0.612 0.352 0.146 0.178 0.231 0.405 0.229 0.649v3.006c0.001 0.28-0.109 0.53-0.29 0.712s-0.429 0.295-0.706 0.296c-3.149-0.336-5.961-1.391-8.263-2.912-0.907-0.576-1.737-1.21-2.457-1.856zM22.293 0.293l-12.231 12.23c-0.031 0.024-0.061 0.051-0.089 0.079-0.029 0.029-0.055 0.059-0.080 0.090l-9.6 9.6c-0.391 0.391-0.391 1.024 0 1.414s1.024 0.391 1.414 0l6.162-6.162c0.823 0.748 1.764 1.47 2.77 2.109 2.568 1.697 5.684 2.862 9.086 3.231 0.092 0.009 0.191 0.013 0.288 0.013 0.828-0.003 1.578-0.343 2.118-0.887s0.873-1.297 0.87-2.121v-2.994c0.004-0.723-0.249-1.4-0.682-1.929-0.46-0.561-1.125-0.958-1.917-1.070-0.8-0.098-1.695-0.314-2.586-0.646-0.433-0.159-0.893-0.218-1.344-0.174-0.663 0.064-1.307 0.349-1.819 0.855l-0.72 0.72c-0.609-0.387-1.221-0.844-1.81-1.361l11.584-11.583c0.391-0.391 0.391-1.024 0-1.414s-1.024-0.391-1.414 0z"></path>
    </symbol>
    <symbol id="icon-settings" viewBox="0 0 24 24">
        <path d="M16 12c0-1.104-0.449-2.106-1.172-2.828s-1.724-1.172-2.828-1.172-2.106 0.449-2.828 1.172-1.172 1.724-1.172 2.828 0.449 2.106 1.172 2.828 1.724 1.172 2.828 1.172 2.106-0.449 2.828-1.172 1.172-1.724 1.172-2.828zM14 12c0 0.553-0.223 1.051-0.586 1.414s-0.861 0.586-1.414 0.586-1.051-0.223-1.414-0.586-0.586-0.861-0.586-1.414 0.223-1.051 0.586-1.414 0.861-0.586 1.414-0.586 1.051 0.223 1.414 0.586 0.586 0.861 0.586 1.414zM20.315 15.404c0.046-0.105 0.112-0.191 0.192-0.257 0.112-0.092 0.251-0.146 0.403-0.147h0.090c0.828 0 1.58-0.337 2.121-0.879s0.879-1.293 0.879-2.121-0.337-1.58-0.879-2.121-1.293-0.879-2.121-0.879h-0.159c-0.11-0.001-0.215-0.028-0.308-0.076-0.127-0.066-0.23-0.172-0.292-0.312-0.003-0.029-0.004-0.059-0.004-0.089-0.024-0.055-0.040-0.111-0.049-0.168 0.020-0.334 0.077-0.454 0.168-0.547l0.062-0.062c0.585-0.586 0.878-1.356 0.877-2.122s-0.294-1.536-0.881-2.122c-0.586-0.585-1.356-0.878-2.122-0.877s-1.536 0.294-2.12 0.879l-0.046 0.046c-0.083 0.080-0.183 0.136-0.288 0.166-0.14 0.039-0.291 0.032-0.438-0.033-0.101-0.044-0.187-0.11-0.253-0.19-0.092-0.112-0.146-0.251-0.147-0.403v-0.090c0-0.828-0.337-1.58-0.879-2.121s-1.293-0.879-2.121-0.879-1.58 0.337-2.121 0.879-0.879 1.293-0.879 2.121v0.159c-0.001 0.11-0.028 0.215-0.076 0.308-0.066 0.127-0.172 0.23-0.312 0.292-0.029 0.003-0.059 0.004-0.089 0.004-0.055 0.024-0.111 0.040-0.168 0.049-0.335-0.021-0.455-0.078-0.548-0.169l-0.062-0.062c-0.586-0.585-1.355-0.878-2.122-0.878s-1.535 0.294-2.122 0.882c-0.585 0.586-0.878 1.355-0.878 2.122s0.294 1.536 0.879 2.12l0.048 0.047c0.080 0.083 0.136 0.183 0.166 0.288 0.039 0.14 0.032 0.291-0.031 0.434-0.006 0.016-0.013 0.034-0.021 0.052-0.041 0.109-0.108 0.203-0.191 0.275-0.11 0.095-0.25 0.153-0.383 0.156h-0.090c-0.828 0-1.58 0.337-2.121 0.879s-0.879 1.294-0.879 2.122 0.337 1.58 0.879 2.121 1.293 0.879 2.121 0.879h0.159c0.11 0.001 0.215 0.028 0.308 0.076 0.128 0.067 0.233 0.174 0.296 0.321 0.024 0.055 0.040 0.111 0.049 0.168-0.020 0.334-0.077 0.454-0.168 0.547l-0.062 0.062c-0.585 0.586-0.878 1.356-0.877 2.122s0.294 1.536 0.881 2.122c0.586 0.585 1.356 0.878 2.122 0.877s1.536-0.294 2.12-0.879l0.047-0.048c0.083-0.080 0.183-0.136 0.288-0.166 0.14-0.039 0.291-0.032 0.434 0.031 0.016 0.006 0.034 0.013 0.052 0.021 0.109 0.041 0.203 0.108 0.275 0.191 0.095 0.11 0.153 0.25 0.156 0.383v0.092c0 0.828 0.337 1.58 0.879 2.121s1.293 0.879 2.121 0.879 1.58-0.337 2.121-0.879 0.879-1.293 0.879-2.121v-0.159c0.001-0.11 0.028-0.215 0.076-0.308 0.067-0.128 0.174-0.233 0.321-0.296 0.055-0.024 0.111-0.040 0.168-0.049 0.334 0.020 0.454 0.077 0.547 0.168l0.062 0.062c0.586 0.585 1.356 0.878 2.122 0.877s1.536-0.294 2.122-0.881c0.585-0.586 0.878-1.356 0.877-2.122s-0.294-1.536-0.879-2.12l-0.048-0.047c-0.080-0.083-0.136-0.183-0.166-0.288-0.039-0.14-0.032-0.291 0.031-0.434zM18.396 9.302c-0.012-0.201-0.038-0.297-0.076-0.382v0.080c0 0.043 0.003 0.084 0.008 0.125 0.021 0.060 0.043 0.119 0.068 0.177 0.004 0.090 0.005 0.091 0.005 0.092 0.249 0.581 0.684 1.030 1.208 1.303 0.371 0.193 0.785 0.298 1.211 0.303h0.18c0.276 0 0.525 0.111 0.707 0.293s0.293 0.431 0.293 0.707-0.111 0.525-0.293 0.707-0.431 0.293-0.707 0.293h-0.090c-0.637 0.003-1.22 0.228-1.675 0.603-0.323 0.266-0.581 0.607-0.75 0.993-0.257 0.582-0.288 1.21-0.127 1.782 0.119 0.423 0.341 0.814 0.652 1.136l0.072 0.073c0.196 0.196 0.294 0.45 0.294 0.707s-0.097 0.512-0.292 0.707c-0.197 0.197-0.451 0.295-0.709 0.295s-0.512-0.097-0.707-0.292l-0.061-0.061c-0.463-0.453-1.040-0.702-1.632-0.752-0.437-0.037-0.882 0.034-1.293 0.212-0.578 0.248-1.027 0.683-1.3 1.206-0.193 0.371-0.298 0.785-0.303 1.211v0.181c0 0.276-0.111 0.525-0.293 0.707s-0.43 0.292-0.706 0.292-0.525-0.111-0.707-0.293-0.293-0.431-0.293-0.707v-0.090c-0.015-0.66-0.255-1.242-0.644-1.692-0.284-0.328-0.646-0.585-1.058-0.744-0.575-0.247-1.193-0.274-1.756-0.116-0.423 0.119-0.814 0.341-1.136 0.652l-0.073 0.072c-0.196 0.196-0.45 0.294-0.707 0.294s-0.512-0.097-0.707-0.292c-0.197-0.197-0.295-0.451-0.295-0.709s0.097-0.512 0.292-0.707l0.061-0.061c0.453-0.463 0.702-1.040 0.752-1.632 0.037-0.437-0.034-0.882-0.212-1.293-0.248-0.578-0.683-1.027-1.206-1.3-0.371-0.193-0.785-0.298-1.211-0.303l-0.18 0.001c-0.276 0-0.525-0.111-0.707-0.293s-0.293-0.431-0.293-0.707 0.111-0.525 0.293-0.707 0.431-0.293 0.707-0.293h0.090c0.66-0.015 1.242-0.255 1.692-0.644 0.328-0.284 0.585-0.646 0.744-1.058 0.247-0.575 0.274-1.193 0.116-1.756-0.119-0.423-0.341-0.814-0.652-1.136l-0.073-0.073c-0.196-0.196-0.294-0.45-0.294-0.707s0.097-0.512 0.292-0.707c0.197-0.197 0.451-0.295 0.709-0.295s0.512 0.097 0.707 0.292l0.061 0.061c0.463 0.453 1.040 0.702 1.632 0.752 0.37 0.032 0.745-0.014 1.101-0.137 0.096-0.012 0.186-0.036 0.266-0.072-0.031 0.001-0.061 0.003-0.089 0.004-0.201 0.012-0.297 0.038-0.382 0.076h0.080c0.043 0 0.084-0.003 0.125-0.008 0.060-0.021 0.119-0.043 0.177-0.068 0.090-0.004 0.091-0.005 0.092-0.005 0.581-0.249 1.030-0.684 1.303-1.208 0.193-0.37 0.298-0.785 0.303-1.21v-0.181c0-0.276 0.111-0.525 0.293-0.707s0.431-0.293 0.707-0.293 0.525 0.111 0.707 0.293 0.293 0.431 0.293 0.707v0.090c0.003 0.637 0.228 1.22 0.603 1.675 0.266 0.323 0.607 0.581 0.996 0.751 0.578 0.255 1.206 0.286 1.778 0.125 0.423-0.119 0.814-0.341 1.136-0.652l0.073-0.072c0.196-0.196 0.45-0.294 0.707-0.294s0.512 0.097 0.707 0.292c0.197 0.197 0.295 0.451 0.295 0.709s-0.097 0.512-0.292 0.707l-0.061 0.061c-0.453 0.463-0.702 1.040-0.752 1.632-0.032 0.37 0.014 0.745 0.137 1.101 0.012 0.095 0.037 0.185 0.072 0.266-0.001-0.032-0.002-0.062-0.004-0.089z"></path>
    </symbol>
    <symbol id="icon-grid" viewBox="0 0 24 24">
        <path d="M3 2c-0.552 0-1 0.448-1 1v7c0 0.552 0.448 1 1 1h7c0.552 0 1-0.448 1-1v-7c0-0.552-0.448-1-1-1zM4 4h5v5h-5zM14 2c-0.552 0-1 0.448-1 1v7c0 0.552 0.448 1 1 1h7c0.552 0 1-0.448 1-1v-7c0-0.552-0.448-1-1-1zM15 4h5v5h-5zM14 13c-0.552 0-1 0.448-1 1v7c0 0.552 0.448 1 1 1h7c0.552 0 1-0.448 1-1v-7c0-0.552-0.448-1-1-1zM15 15h5v5h-5zM3 13c-0.552 0-1 0.448-1 1v7c0 0.552 0.448 1 1 1h7c0.552 0 1-0.448 1-1v-7c0-0.552-0.448-1-1-1zM4 15h5v5h-5z"></path>
    </symbol>
    <symbol id="icon-sidebar" viewBox="0 0 24 24">
        <path d="M5 2c-0.828 0-1.58 0.337-2.121 0.879s-0.879 1.293-0.879 2.121v14c0 0.828 0.337 1.58 0.879 2.121s1.293 0.879 2.121 0.879h14c0.828 0 1.58-0.337 2.121-0.879s0.879-1.293 0.879-2.121v-14c0-0.828-0.337-1.58-0.879-2.121s-1.293-0.879-2.121-0.879zM10 20v-16h9c0.276 0 0.525 0.111 0.707 0.293s0.293 0.431 0.293 0.707v14c0 0.276-0.111 0.525-0.293 0.707s-0.431 0.293-0.707 0.293zM8 4v16h-3c-0.276 0-0.525-0.111-0.707-0.293s-0.293-0.431-0.293-0.707v-14c0-0.276 0.111-0.525 0.293-0.707s0.431-0.293 0.707-0.293z"></path>
    </symbol>
    <symbol id="icon-close" viewBox="0 0 24 24">
        <path d="M5.293 6.707l5.293 5.293-5.293 5.293c-0.391 0.391-0.391 1.024 0 1.414s1.024 0.391 1.414 0l5.293-5.293 5.293 5.293c0.391 0.391 1.024 0.391 1.414 0s0.391-1.024 0-1.414l-5.293-5.293 5.293-5.293c0.391-0.391 0.391-1.024 0-1.414s-1.024-0.391-1.414 0l-5.293 5.293-5.293-5.293c-0.391-0.391-1.024-0.391-1.414 0s-0.391 1.024 0 1.414z"></path>
    </symbol>
    <symbol id="icon-loader" viewBox="0 0 24 24">
        <path d="M11 2v4c0 0.552 0.448 1 1 1s1-0.448 1-1v-4c0-0.552-0.448-1-1-1s-1 0.448-1 1zM11 18v4c0 0.552 0.448 1 1 1s1-0.448 1-1v-4c0-0.552-0.448-1-1-1s-1 0.448-1 1zM4.223 5.637l2.83 2.83c0.391 0.391 1.024 0.391 1.414 0s0.391-1.024 0-1.414l-2.83-2.83c-0.391-0.391-1.024-0.391-1.414 0s-0.391 1.024 0 1.414zM15.533 16.947l2.83 2.83c0.391 0.391 1.024 0.391 1.414 0s0.391-1.024 0-1.414l-2.83-2.83c-0.391-0.391-1.024-0.391-1.414 0s-0.391 1.024 0 1.414zM2 13h4c0.552 0 1-0.448 1-1s-0.448-1-1-1h-4c-0.552 0-1 0.448-1 1s0.448 1 1 1zM18 13h4c0.552 0 1-0.448 1-1s-0.448-1-1-1h-4c-0.552 0-1 0.448-1 1s0.448 1 1 1zM5.637 19.777l2.83-2.83c0.391-0.391 0.391-1.024 0-1.414s-1.024-0.391-1.414 0l-2.83 2.83c-0.391 0.391-0.391 1.024 0 1.414s1.024 0.391 1.414 0zM16.947 8.467l2.83-2.83c0.391-0.391 0.391-1.024 0-1.414s-1.024-0.391-1.414 0l-2.83 2.83c-0.391 0.391-0.391 1.024 0 1.414s1.024 0.391 1.414 0z"></path>
    </symbol>
</svg>
